<svg xmlns="http://www.w3.org/2000/svg" id="Art" viewBox="100.84 105.96 889.29 764.3"><defs><style>.cls-1{fill:#dedede;}.cls-11,.cls-12,.cls-14,.cls-15,.cls-17,.cls-18,.cls-19,.cls-2,.cls-20,.cls-21,.cls-22,.cls-23,.cls-24,.cls-5,.cls-7,.cls-9{fill:none;}.cls-12,.cls-17,.cls-18,.cls-2,.cls-7{stroke:#000;}.cls-11,.cls-15,.cls-16,.cls-17,.cls-18,.cls-19,.cls-2,.cls-20,.cls-22,.cls-23,.cls-24,.cls-5,.cls-9{stroke-linecap:round;}.cls-11,.cls-19,.cls-2,.cls-22,.cls-23,.cls-24,.cls-5{stroke-linejoin:round;}.cls-17,.cls-2,.cls-3,.cls-5,.cls-7{stroke-width:2.5px;}.cls-3,.cls-6{fill:#fff;}.cls-14,.cls-19,.cls-20,.cls-21,.cls-22,.cls-24,.cls-3{stroke:#e00;}.cls-12,.cls-14,.cls-15,.cls-16,.cls-17,.cls-18,.cls-20,.cls-21,.cls-3,.cls-7,.cls-9{stroke-miterlimit:10;}.cls-4{fill:#e00;}.cls-23,.cls-5{stroke:#fff;}.cls-16,.cls-8{fill:#be0000;}.cls-15,.cls-16,.cls-9{stroke:#5f0000;}.cls-9{stroke-width:1.86px;}.cls-10{fill:#5f0000;}.cls-11{stroke:#dedede;}.cls-11,.cls-14,.cls-24{stroke-width:2px;}.cls-12{stroke-width:1.14px;}.cls-13{fill:#8f0000;}.cls-15{stroke-width:1.86px;}.cls-16{stroke-width:2.01px;}.cls-18{stroke-width:2.25px;}.cls-19,.cls-20{stroke-width:2.14px;}.cls-21{stroke-width:2.42px;}.cls-22{stroke-width:10px;}.cls-23{stroke-width:3px;}</style></defs><title>RH_BRAND_007283_01_MECH_ValueofSubscription_Full Color_Grey</title><path class="cls-1" d="M864.86,484l-1.9-1.19A152,152,0,0,1,792,366.8a175.52,175.52,0,0,0-1.59-18.61,1.66,1.66,0,0,0,0-.22,172.25,172.25,0,0,0-328.72-43.81l-27.5,60.32a152,152,0,0,1-103.39,84.89l-48.35,11.41A172.27,172.27,0,0,0,148.75,630.71c1.07,92.89,76.6,168.71,169.49,170.15,27.39.42,53.88-8.14,80.78-11.9,60.17-8.41,122.31-11.68,183.46-8a794,794,0,0,1,92.88,11c29.77,5.34,58.81,14.61,88.8,18.51a215.63,215.63,0,0,0,28,2A172.23,172.23,0,0,0,864.86,484Z"/><polyline class="cls-2" points="852.53 449.49 852.53 356.79 376.78 356.79 376.78 391.37"/><rect class="cls-3" x="710.42" y="448.21" width="278.46" height="248.31"/><rect class="cls-1" x="734.34" y="518.33" width="166.97" height="154.49"/><rect class="cls-1" x="923.35" y="518.33" width="42.04" height="44.28"/><rect class="cls-1" x="923.35" y="584.66" width="42.04" height="88.17"/><rect class="cls-4" x="710.42" y="448.21" width="278.46" height="47.72"/><line class="cls-5" x1="734.34" y1="471.95" x2="858.45" y2="471.95"/><circle class="cls-6" cx="930.82" cy="471.95" r="6.98"/><circle class="cls-6" cx="958.41" cy="471.95" r="6.98"/><rect class="cls-6" x="745.31" y="530.01" width="126.81" height="7.88"/><rect class="cls-6" x="745.31" y="551.53" width="58.45" height="7.88"/><rect class="cls-6" x="745.31" y="573.05" width="96.43" height="7.88"/><rect class="cls-6" x="745.31" y="616.09" width="96.43" height="7.88"/><rect class="cls-6" x="745.31" y="594.57" width="35.66" height="7.88"/><rect class="cls-6" x="788.42" y="594.57" width="35.66" height="7.88"/><rect class="cls-6" x="745.31" y="637.61" width="35.66" height="7.88"/><rect class="cls-6" x="788.42" y="637.61" width="83.7" height="7.88"/><line class="cls-7" x1="376.78" y1="644.26" x2="220.87" y2="644.26"/><line class="cls-2" x1="626.84" y1="231.17" x2="626.84" y2="356.79"/><path class="cls-8" d="M515.82,839.7s10.38-13,10.12-21.72c-.4-13.42,5.68-69.58,14.45-84.86l71.06,9.33s-16.22,41-44.62,102.09l-51-4.84"/><path class="cls-8" d="M561.05,844.76c-10,21.68-64.72,10.75-64.72,10.75l-8.11-29.18c21.72-9.58,62.34-5.05,62.34-5.05s9.53-55.58.85-77h13.15s13.57,82-3.51,100.47"/><path class="cls-9" d="M488.22,826.33c14.09-6.21,36.13-6.49,49.88-5.92"/><path class="cls-10" d="M561.46,848c-10,21.68-64.72,10.75-64.72,10.75l6.56-9c13.73-6.05,30-14.26,40.05-19.48,6.13-3.17,10.84-9.19,10.88-16.08.31-54.44-12-57.38-19.23-65.67l30-1s13.57,82-3.51,100.48"/><path class="cls-6" d="M558.65,870.16c.6-6.22,6.92-73.75,2.34-96.42-11.58-57.33-2.38-86.71-2.38-86.71l113.68,4.64,16.39-8.8s20.49,8.31,20.49,12.14-.55,163.32,9,175"/><path class="cls-1" d="M676.12,716.5s-15.89,45.5-12.7,79.32-69.53,50-69.53,50h89.8l11.39-37.28L682,720.92Z"/><line class="cls-7" x1="376.78" y1="514.05" x2="376.78" y2="731.87"/><path class="cls-6" d="M678.19,695.52,600.26,627.8c-.86.83-.28.85-7.39,4.84-2.49,1.39-20.29,15-22.85,16.22-2.37,1.17-4.53,3.23-6.78,4.64-2.66,1.66-5.42,3.15-8.14,4.7-5.36,3-10.76,6.28-14.79,11-7.12,8.4-8.22,19.33-11.22,29.48q-4.38,14.84-8.87,29.61c-1.32,4.34-2.63,8.67-4,13l55.28,21.15c13.74-13.28,31.89-38.61,47.39-43.56a306.37,306.37,0,0,1,58-12.66C677.31,702.73,677.72,699.14,678.19,695.52Z"/><path class="cls-11" d="M559.62,868.82s7.14-73.11,2.37-96.89c-5.63-28.07-6.32-49.44-5.55-63.94"/><path class="cls-12" d="M672.59,689.86l16.28-8.79s20.36,8.3,20.36,12.13-.58,173.81,9.89,175.62H559.62"/><circle class="cls-3" cx="626.84" cy="208.7" r="101.49"/><circle class="cls-3" cx="178.21" cy="644.26" r="76.12"/><path class="cls-13" d="M571.54,843.32s-45.46-9.67-50.38-9a22.52,22.52,0,0,0-8.47,3s-7.21-3.09-13.12,2.52c0,0-6.33-1.68-13.55,5.53L467.39,864l17.22.26s53.93,1.54,65.56.77a64.89,64.89,0,0,1,21.37,2.3Z"/><path class="cls-8" d="M599.43,850.68s-43.91-17-48.93-18a25.71,25.71,0,0,0-9.15-.22s-6.24-4.92-13.59-2.15c0,0-5.75-3.45-14.83.23L489.52,840l1.14,4.5,21-1.28L496.33,855l9.83,3.24,5.07,1.68,19.35,6.38s28.33-1.67,40,1.45a59.23,59.23,0,0,0,21.91,1.56Z"/><path class="cls-9" d="M567,848.51a21.62,21.62,0,0,0-19.35.51C537.08,854.41,517.56,862,517.56,862"/><path class="cls-9" d="M558.77,837.93s-9.12-3.25-19.66,4-27.88,18-27.88,18"/><path class="cls-9" d="M599.43,850.68,555,834.06s-8-5.14-18.79,1.07-35.43,19.8-35.43,19.8,4,9.44,14.11,3"/><path class="cls-9" d="M541.35,832.46s-10.61-6.46-18.6,1.28S496.33,855,496.33,855"/><path class="cls-9" d="M527.76,830.31s-4.4-4.35-11.28-1.38-27,11.11-27,11.11"/><path class="cls-8" d="M678.87,740.79c-5.07,18.47,2.55,63,5.22,75.2-19.65,2.83-28,10.09-45.37,14-18.8,4.26-58.79,14.31-58.79,14.31l-3.4,24.92h156c14.37-75.59,19.9-128.47,19.9-128.47Z"/><path class="cls-10" d="M563.63,861.5s17.39-10.56,26.59-10.69,27.66,14.69,32.94,13.13Z"/><path class="cls-14" d="M732.51,869.26c14.18-74.88,19.9-128.47,19.9-128.47"/><path class="cls-10" d="M748.79,762c-13-5.33-43.36-2.7-57-1.15-.46-7.91-.25-15,1.14-20.08h-14c-5.07,18.47,2.55,63,5.22,75.2-19.65,2.83-28,10.09-45.37,14-18.8,4.26-61.85,13.23-61.85,13.23l3.54,1.28S634,834.29,652.77,830c17.4-3.95,28.63-9.9,48.28-12.72-1.59-7.23-5.93-26.26-8.15-44.42C710.58,763.08,748.79,762,748.79,762Z"/><path class="cls-6" d="M758.09,690.72c-1-7.82-3.05-15.4-7.43-22-3.51-5.3-8.78-8.79-14.27-11.8-5.93-3.24-12.14-6-17.94-9.46-6.67-4-13-8.65-19.34-13.14-13.34-9.41-26.88-18.66-42.63-23.49a4.53,4.53,0,0,1-.55-.23c-20.35-1.86-40,3.1-59.91,11.13-3.45,1.4,0,0-2.13.54l84.3,73.26a463.37,463.37,0,0,0-3.41,72.53c25.58-11.31,82.43-5.34,82.43-5.34.62-16.25,1.8-32.49,1.76-48.76C759,706.42,759.05,698.45,758.09,690.72Z"/><path class="cls-8" d="M658.3,527.26a52.39,52.39,0,1,1-56.36-48.09A52.38,52.38,0,0,1,658.3,527.26Z"/><path class="cls-11" d="M670.12,620.64c-4.73,13.49-13.79,25-26.93,34.21a36.77,36.77,0,0,1-21.26,6.67h0c-.64,0-1.28,0-1.92,0h-.13c-16.21-.84-25.65-8.06-28.86-22.05"/><path class="cls-8" d="M589.13,604.21c1.4,5.08,3.15,10.08,4.52,15.17,1.65,6.15,2,12.47,3.4,18.66,2.82,12.27,11,16.61,23.17,17.25h.11a30.87,30.87,0,0,0,19.31-5.51c10.33-7.24,19.77-17.3,24.64-31.19a5.11,5.11,0,0,0-.13-3.63c-3-7.2-13.63-35.52-10.55-66.06Z"/><path class="cls-10" d="M647.8,578.64l-55.89,34.81c.61,2,1.21,3.94,1.74,5.93,1.65,6.15,2,12.47,3.4,18.66a26.65,26.65,0,0,0,2.25,6.29C646.41,614.12,647.8,578.64,647.8,578.64Z"/><path class="cls-8" d="M557.51,511.73s-4,8.49-5.38,27.39a29.81,29.81,0,0,0,2,13l2.76,7a22.73,22.73,0,0,1,1.54,9.65l0,.65a29.48,29.48,0,0,0,3.09,15l6.6,13.13a210.08,210.08,0,0,1,9.51,22.78c1.6,4.41,5.32,9.43,14,8.92,0,0,52.42-21,54.69-42.2,0,0,1-12.65-3-21.68"/><path class="cls-15" d="M590.42,594.59a29.5,29.5,0,0,1-19.9,1.92"/><path d="M641.07,558.14l-.9-26.1-8.89-2.88-.17,23.67a7.14,7.14,0,0,1-1.23,3.95L617,576l-8.32,12.34a5.92,5.92,0,0,1-9,.92c-2.75-2.68-5.26-4.53-9.06-5.52-5.52-1.44-11.36-2.49-17.07-1.91-3,.31-5.65.86-7.5,3.41a8.05,8.05,0,0,0-1,7.43l5.5,15a17.76,17.76,0,0,1,1.05,7.45,15.52,15.52,0,0,0,14.39,16.34c.48,0,1.09.06,1.8.06a26,26,0,0,0,16.27-5.65,86.29,86.29,0,0,1,9.09-6.71c9.92-6.12,21.74-11.51,28.64-21.26,4.38-6.17,4.67-12.44,6.06-19.53l-4.53-10.61A26.85,26.85,0,0,1,641.07,558.14ZM582,605a11.21,11.21,0,0,1-9.43-2.65c-2.39-2.21-4.6-5.71-3.34-9,1.33-3.5,5.56-4.68,9-4.61a31.25,31.25,0,0,1,6.49,1c2.33.55,4.91,1,7,2.32a2.84,2.84,0,0,1,.83,3.9C590,599.94,586.74,604.32,582,605Z"/><path class="cls-16" d="M569.2,551.36s.87,1.35.74,5.59l-4.85,17.89a6.61,6.61,0,0,0,.63,5.22c1.08,1.73,3.26,3.26,7.65,2.45,0,0,3.87-.68,5.28-1.89"/><path class="cls-15" d="M584.84,569s4,3.91.65,9.63"/><path d="M579.42,544.6h0l0,0v0a1.26,1.26,0,0,0,.15-.16l.15-.21.06-.11a2.31,2.31,0,0,0,.26-1.56,2.4,2.4,0,0,0-1.64-1.86l-.35-.08a2.15,2.15,0,0,0-.76,0c-.57.14-.36.12-.41.12l0,0,.41-.17.9-.39c.62-.26,1.24-.51,1.87-.75,1.25-.47,2.52-.89,3.81-1.24a37.35,37.35,0,0,1,7.93-1.33,28.1,28.1,0,0,1,8,.67,24.34,24.34,0,0,1,7.38,3.07,1,1,0,0,1,.3,1.35,1,1,0,0,1-1.26.35h0a21.57,21.57,0,0,0-6.9-2.16,25.25,25.25,0,0,0-7.21.06,34,34,0,0,0-7,1.86c-1.14.43-2.25.91-3.34,1.44-.54.26-1.08.54-1.62.83l-.81.44L579,545l-.17.08a2.09,2.09,0,0,1-.63.21,2.61,2.61,0,0,1-.79,0l-.37-.08a2.42,2.42,0,0,1-1.64-1.87,2.33,2.33,0,0,1,.26-1.57l.08-.12a1.31,1.31,0,0,1,.17-.24c0-.06.15-.17.16-.19l0,0,.08-.08.19-.17a2.39,2.39,0,0,1,3.2,3.55l-.16.13Z"/><path class="cls-17" d="M604.45,549.59a30.26,30.26,0,0,0-22,3.82"/><circle cx="591.66" cy="553.41" r="3.96"/><path d="M560.12,548a10.5,10.5,0,0,0-1.63-.62,12.12,12.12,0,0,0-1.76-.41,6.72,6.72,0,0,0-3.38.2l-.11,0a1.09,1.09,0,0,1-1.09-1.86,9.29,9.29,0,0,1,4.46-1.92,17.13,17.13,0,0,1,4.76-.17l.22,0a2.51,2.51,0,0,1-.6,5A2.76,2.76,0,0,1,560.12,548Z"/><path class="cls-18" d="M566.39,556s-6.08-1.54-9.72,1.18"/><circle cx="561.4" cy="558.15" r="3.15"/><path d="M639.4,544.29a6.12,6.12,0,0,1-7-3.72c-.95-2.43-2.49-6.7-3.6-7.82-2.05-2.06-1.68-5-2.18-6.17-2-4.92-5.9-3.4-8.95-6.11s-1.8-8.24-6.1-9.27-8-1.75-11.73-3.94-5.19-1.2-9.47-.88-9.53-3.82-13.82-1-8.86,2.59-13.33,3.76-3.35,7.7-8.81,6.2-10.57-11.73-8.06-16.91.24-7.44,2.44-11.65,3.57-9.09,7.15-11.75,6.78,0,10.38-1.31,4.23-6.06,7.82-7.28,7.59,1.35,11,.62,4.49-4.14,7.71-4.73,5.71,2.18,8.91,1.58,6.72-2.2,9.82-1.39,4.88,2.19,8,2.11,5-2.2,8.36-.85,4.24,5.62,8.22,7,9.77,1.81,13.13,5,2.59,8,6.46,11c5,3.87,8.89,7.52,10.24,14,1.08,5.14.77,10.63,2.47,15.63,1.15,3.39,2.37,6.83,2.19,10.46-.2,3.85-1.77,7.51-2.78,11.19-1.5,5.42-2.93,10.85-4.22,16.32-1.36,5.75-6.17,10.11-8.51,16.26-.64,1.66-2.72,2.25-3.76.13s-2.34-5.08-3.29-7.41c6-9.93,8.19-15.34,3.29-26.37-2.88,2.2-5.74,4.4-8.64,6.6C641.79,543.77,640.29,544.07,639.4,544.29Z"/><path class="cls-8" d="M643.87,568.73s9.85-2.67,14.59-16.36-11.24-28.55-18.23-8.27"/><path d="M360.2,858.62H631.86a0,0,0,0,1,0,0v2.63a8,8,0,0,1-8,8H368.2a8,8,0,0,1-8-8v-2.63A0,0,0,0,1,360.2,858.62Z"/><line class="cls-19" x1="500.02" y1="858.62" x2="631.86" y2="858.62"/><path d="M501,866.16H364.8a4.37,4.37,0,0,1-4-2.76l-57.51-141a4.49,4.49,0,0,1,4-6.24H443.48a4.37,4.37,0,0,1,4,2.76l57.52,141A4.5,4.5,0,0,1,501,866.16Z"/><path class="cls-20" d="M303.26,722.39a4.49,4.49,0,0,1,4-6.24H443.48"/><path class="cls-4" d="M178.21,590.67,133.37,603.4v49.29a49.7,49.7,0,0,0,4.18,20c14.18,32.2,40.66,31.07,40.66,31.07s26.81,1.14,40.93-31.68a48.88,48.88,0,0,0,3.92-19.31V603.4Z"/><path class="cls-6" d="M178.21,696.26c-2.15,0-17.61.17-29.14-16.73a49,49,0,0,1-8.38-27.59V610.07l37.52-10.65,37.53,10.65v41.87a49,49,0,0,1-8.39,27.59c-11.53,16.9-27,16.73-29.14,16.73Z"/><path class="cls-1" d="M176.71,694.73c-5.72-.3-17.29-2.7-26.4-16.05a47.24,47.24,0,0,1-8.12-26.74V611.2l34.52-9.8Z"/><path class="cls-6" d="M175.21,603.39V693.1c-5.81-.64-15.69-3.58-23.66-15.26a45.76,45.76,0,0,1-7.86-25.9V612.33l31.52-8.94m3-4-37.52,10.65v41.87a49,49,0,0,0,8.38,27.59c11.31,16.57,26.38,16.73,29,16.73h.14V599.42Z"/><path class="cls-10" d="M612.6,634.75s-9.18,7.24-5,17.7a17.93,17.93,0,0,1-8.79-9.22l6.54-8.17Z"/><rect class="cls-3" x="272.35" y="385.89" width="208.85" height="186.23"/><rect class="cls-1" x="290.3" y="438.48" width="125.23" height="115.87"/><rect class="cls-1" x="432.05" y="438.48" width="31.53" height="33.21"/><rect class="cls-1" x="432.05" y="488.22" width="31.53" height="66.13"/><rect class="cls-4" x="272.35" y="385.89" width="208.85" height="35.79"/><line class="cls-5" x1="290.29" y1="403.7" x2="383.37" y2="403.7"/><circle class="cls-6" cx="437.65" cy="403.7" r="5.23"/><circle class="cls-6" cx="458.35" cy="403.7" r="5.23"/><rect x="569.92" y="200.47" width="22.79" height="51.35" rx="6.04"/><path class="cls-4" d="M560.46,208.89h9.45a0,0,0,0,1,0,0V243.7a0,0,0,0,1,0,0h-9.45a3.62,3.62,0,0,1-3.62-3.62V212.52A3.62,3.62,0,0,1,560.46,208.89Z"/><rect x="660.97" y="200.47" width="22.79" height="51.35" rx="6.04" transform="translate(1344.74 452.3) rotate(180)"/><path class="cls-4" d="M687.39,208.6h9.45a0,0,0,0,1,0,0v34.81a0,0,0,0,1,0,0h-9.45a3.62,3.62,0,0,1-3.62-3.62V212.22A3.62,3.62,0,0,1,687.39,208.6Z" transform="translate(1380.61 452) rotate(180)"/><path class="cls-21" d="M563.38,208.89V198.73a63.46,63.46,0,0,1,63.46-63.46h0a63.46,63.46,0,0,1,63.46,63.46v10.16"/><path class="cls-22" d="M586,150.17a64,64,0,0,1,65.4-10,63.14,63.14,0,0,1,16.32,10"/><path class="cls-21" d="M581.31,251.83h0a21.86,21.86,0,0,0,21.86,21.85h13.66"/><rect class="cls-4" x="606.17" y="263.73" width="32.44" height="19.91" rx="9.95"/><polygon class="cls-6" points="317.84 499.12 308.58 483.09 299.32 499.12 317.84 499.12"/><polygon class="cls-6" points="387.98 493.7 397.24 509.74 406.5 493.7 387.98 493.7"/><path class="cls-23" d="M308.58,496.41a44.33,44.33,0,0,1,44.33-44.32"/><path class="cls-1" d="M308.58,483.09l9.26,16H299.32l9.26-16m0-8-3.46,6-9.27,16-3.46,6h32.38l-3.47-6-9.26-16-3.46-6Z"/><path class="cls-23" d="M352.91,540.74a44.33,44.33,0,0,1-44.33-44.33"/><path class="cls-23" d="M397.24,496.41a44.33,44.33,0,0,1-44.33,44.33"/><path class="cls-1" d="M406.5,493.7l-9.26,16-9.26-16H406.5m6.93-4H381.05l3.46,6,9.26,16,3.47,6,3.46-6,9.26-16,3.47-6Z"/><path class="cls-23" d="M352.91,452.09a44.33,44.33,0,0,1,44.33,44.32"/><line class="cls-24" x1="209.24" y1="869.26" x2="148.71" y2="869.26"/><line class="cls-24" x1="135.13" y1="869.26" x2="104.86" y2="869.26"/><line class="cls-24" x1="822.27" y1="869.26" x2="882.79" y2="869.26"/><line class="cls-24" x1="896.38" y1="869.26" x2="921.69" y2="869.26"/><line class="cls-24" x1="805.83" y1="869.26" x2="252.06" y2="869.26"/></svg>